<?xml version="1.0" standalone="no"?>
<!DOCTYPE svg PUBLIC "-//W3C//DTD SVG 20010904//EN"
 "http://www.w3.org/TR/2001/REC-SVG-20010904/DTD/svg10.dtd">
<svg version="1.0" xmlns="http://www.w3.org/2000/svg"
 width="500.000000pt" height="500.000000pt" viewBox="0 0 500.000000 500.000000"
 preserveAspectRatio="xMidYMid meet">

<g transform="translate(0.000000,500.000000) scale(0.100000,-0.100000)"
fill="#000000" stroke="none">
<path d="M2320 4465 c-192 -16 -270 -29 -387 -66 -137 -44 -224 -107 -266
-192 -33 -67 -50 -253 -45 -492 l3 -170 468 -3 467 -2 0 -105 0 -105 -763 0
c-728 0 -767 -1 -841 -20 -194 -49 -341 -183 -395 -360 -18 -60 -52 -216 -66
-300 -24 -150 -15 -402 21 -570 8 -36 21 -99 30 -140 38 -181 141 -344 264
-421 65 -41 129 -51 368 -56 l232 -5 0 288 c0 331 7 380 70 510 44 90 132 191
220 251 142 96 191 103 731 103 396 0 431 1 491 20 64 19 160 72 221 122 38
29 107 142 126 203 9 30 11 174 9 581 l-3 542 -49 96 c-44 88 -54 101 -123
152 -82 62 -158 96 -248 113 -58 11 -350 42 -370 40 -5 -1 -80 -7 -165 -14z
m-258 -421 c15 -8 39 -31 53 -51 67 -100 -5 -243 -122 -243 -94 0 -163 66
-163 154 0 57 19 97 60 126 58 41 110 45 172 14z"/>
</g>
</svg>
